<mxfile host="app.diagrams.net" modified="2023-01-18T16:30:19.574Z" agent="5.0 (Windows)" etag="uwJzmRmmTvVngq_4mCv5" version="20.8.5" type="github">
  <diagram id="qKfj92jqdqrGF1KPq4Z1" name="Página-1">
    <mxGraphModel dx="1621" dy="394" grid="1" gridSize="10" guides="1" tooltips="1" connect="1" arrows="1" fold="1" page="1" pageScale="1" pageWidth="827" pageHeight="1169" math="0" shadow="0">
      <root>
        <mxCell id="0" />
        <mxCell id="1" parent="0" />
        <mxCell id="Vwqgt0ymvUvt724ZBBSK-9" value=":Conversation" style="shape=umlLifeline;perimeter=lifelinePerimeter;whiteSpace=wrap;html=1;container=1;collapsible=0;recursiveResize=0;outlineConnect=0;fillColor=#d5e8d4;strokeColor=#82b366;" parent="1" vertex="1">
          <mxGeometry x="139" y="110" width="100" height="610" as="geometry" />
        </mxCell>
        <mxCell id="a-jPPDauZuke9ngzfkM4-1" value=":ConversationManager" style="shape=umlLifeline;perimeter=lifelinePerimeter;whiteSpace=wrap;html=1;container=1;collapsible=0;recursiveResize=0;outlineConnect=0;fillColor=#d5e8d4;strokeColor=#82b366;" vertex="1" parent="1">
          <mxGeometry x="-60" y="20" width="140" height="600" as="geometry" />
        </mxCell>
        <mxCell id="a-jPPDauZuke9ngzfkM4-2" value="openConversation(destinataireID)" style="html=1;verticalAlign=bottom;startArrow=oval;startFill=1;endArrow=block;startSize=8;rounded=0;" edge="1" parent="1">
          <mxGeometry x="-0.1367" y="10" width="60" relative="1" as="geometry">
            <mxPoint x="-60" y="90" as="sourcePoint" />
            <mxPoint x="9.5" y="90" as="targetPoint" />
            <mxPoint as="offset" />
          </mxGeometry>
        </mxCell>
        <mxCell id="a-jPPDauZuke9ngzfkM4-3" value=":TCPSendData" style="shape=umlLifeline;perimeter=lifelinePerimeter;whiteSpace=wrap;html=1;container=1;collapsible=0;recursiveResize=0;outlineConnect=0;fillColor=#d5e8d4;strokeColor=#82b366;" vertex="1" parent="1">
          <mxGeometry x="70" y="320" width="100" height="610" as="geometry" />
        </mxCell>
        <mxCell id="a-jPPDauZuke9ngzfkM4-15" value="création" style="html=1;verticalAlign=bottom;endArrow=block;rounded=0;" edge="1" parent="a-jPPDauZuke9ngzfkM4-3">
          <mxGeometry width="80" relative="1" as="geometry">
            <mxPoint x="-61.5" y="20" as="sourcePoint" />
            <mxPoint y="20" as="targetPoint" />
          </mxGeometry>
        </mxCell>
        <mxCell id="a-jPPDauZuke9ngzfkM4-4" value=":TCPReceiveData" style="shape=umlLifeline;perimeter=lifelinePerimeter;whiteSpace=wrap;html=1;container=1;collapsible=0;recursiveResize=0;outlineConnect=0;fillColor=#d5e8d4;strokeColor=#82b366;size=40;" vertex="1" parent="1">
          <mxGeometry x="210" y="369" width="100" height="610" as="geometry" />
        </mxCell>
        <mxCell id="a-jPPDauZuke9ngzfkM4-5" value="création" style="html=1;verticalAlign=bottom;endArrow=block;rounded=0;entryX=0.01;entryY=0.033;entryDx=0;entryDy=0;entryPerimeter=0;" edge="1" parent="1" target="Vwqgt0ymvUvt724ZBBSK-9">
          <mxGeometry width="80" relative="1" as="geometry">
            <mxPoint x="9.5" y="130" as="sourcePoint" />
            <mxPoint x="130" y="130" as="targetPoint" />
          </mxGeometry>
        </mxCell>
        <mxCell id="a-jPPDauZuke9ngzfkM4-6" value=":ListeUser" style="shape=umlLifeline;perimeter=lifelinePerimeter;whiteSpace=wrap;html=1;container=1;collapsible=0;recursiveResize=0;outlineConnect=0;fillColor=#d5e8d4;strokeColor=#82b366;" vertex="1" parent="1">
          <mxGeometry x="290" y="20" width="140" height="600" as="geometry" />
        </mxCell>
        <mxCell id="a-jPPDauZuke9ngzfkM4-7" value=":TCPConnect" style="shape=umlLifeline;perimeter=lifelinePerimeter;whiteSpace=wrap;html=1;container=1;collapsible=0;recursiveResize=0;outlineConnect=0;fillColor=#d5e8d4;strokeColor=#82b366;" vertex="1" parent="1">
          <mxGeometry x="510" y="20" width="140" height="600" as="geometry" />
        </mxCell>
        <mxCell id="a-jPPDauZuke9ngzfkM4-13" value="" style="html=1;points=[];perimeter=orthogonalPerimeter;fillColor=#dae8fc;strokeColor=#6c8ebf;" vertex="1" parent="a-jPPDauZuke9ngzfkM4-7">
          <mxGeometry x="65" y="230" width="10" height="40" as="geometry" />
        </mxCell>
        <mxCell id="a-jPPDauZuke9ngzfkM4-8" value="demande addresse destination" style="html=1;verticalAlign=bottom;endArrow=block;rounded=0;" edge="1" parent="1">
          <mxGeometry width="80" relative="1" as="geometry">
            <mxPoint x="9.5" y="182" as="sourcePoint" />
            <mxPoint x="359.5" y="182" as="targetPoint" />
          </mxGeometry>
        </mxCell>
        <mxCell id="a-jPPDauZuke9ngzfkM4-10" value="adresse" style="html=1;verticalAlign=bottom;endArrow=block;rounded=0;" edge="1" parent="1">
          <mxGeometry width="80" relative="1" as="geometry">
            <mxPoint x="359.5" y="214" as="sourcePoint" />
            <mxPoint x="9.5" y="214" as="targetPoint" />
          </mxGeometry>
        </mxCell>
        <mxCell id="a-jPPDauZuke9ngzfkM4-11" value="" style="html=1;points=[];perimeter=orthogonalPerimeter;fillColor=#dae8fc;strokeColor=#6c8ebf;" vertex="1" parent="1">
          <mxGeometry x="354" y="183" width="10" height="30" as="geometry" />
        </mxCell>
        <mxCell id="a-jPPDauZuke9ngzfkM4-12" value="connectTo(adresse)" style="html=1;verticalAlign=bottom;endArrow=block;rounded=0;" edge="1" parent="1" source="a-jPPDauZuke9ngzfkM4-1" target="a-jPPDauZuke9ngzfkM4-7">
          <mxGeometry width="80" relative="1" as="geometry">
            <mxPoint x="19.5" y="192" as="sourcePoint" />
            <mxPoint x="369.5" y="192" as="targetPoint" />
            <Array as="points">
              <mxPoint x="420" y="250" />
            </Array>
          </mxGeometry>
        </mxCell>
        <mxCell id="a-jPPDauZuke9ngzfkM4-14" value="socket" style="html=1;verticalAlign=bottom;endArrow=block;rounded=0;" edge="1" parent="1" target="a-jPPDauZuke9ngzfkM4-1">
          <mxGeometry width="80" relative="1" as="geometry">
            <mxPoint x="579.5" y="290" as="sourcePoint" />
            <mxPoint x="19.5" y="290" as="targetPoint" />
          </mxGeometry>
        </mxCell>
        <mxCell id="a-jPPDauZuke9ngzfkM4-17" value="création" style="html=1;verticalAlign=bottom;endArrow=block;rounded=0;" edge="1" parent="1" source="a-jPPDauZuke9ngzfkM4-1">
          <mxGeometry width="80" relative="1" as="geometry">
            <mxPoint x="9.5" y="392" as="sourcePoint" />
            <mxPoint x="210" y="390" as="targetPoint" />
          </mxGeometry>
        </mxCell>
      </root>
    </mxGraphModel>
  </diagram>
</mxfile>
